<?xml version="1.0" standalone="no"?><!DOCTYPE svg PUBLIC "-//W3C//DTD SVG 1.1//EN" "http://www.w3.org/Graphics/SVG/1.1/DTD/svg11.dtd"><svg t="1523418318901" class="icon" style="" viewBox="0 0 1024 1024" version="1.1" xmlns="http://www.w3.org/2000/svg" p-id="15552" xmlns:xlink="http://www.w3.org/1999/xlink" width="200" height="200"><defs><style type="text/css"></style></defs><path d="M768 78.08C746.666667 78.08 725.333333 85.333333 707.84 102.826667 585.386667 225.28 341.333333 469.333333 341.333333 469.333333L405.333333 533.333333 256 682.666667 170.666667 682.666667 85.333333 853.333333 170.666667 938.666667 341.333333 853.333333 341.333333 768 490.666667 618.666667 554.666667 682.666667C554.666667 682.666667 798.72 438.613333 921.173333 316.16 947.626667 277.333333 954.453333 229.12 921.173333 195.84L828.16 102.826667C810.666667 85.333333 789.333333 78.08 768 78.08M768 170.666667 853.333333 256 554.666667 554.666667 469.333333 469.333333 768 170.666667Z" p-id="15553" fill="#707070"></path></svg>