<?xml version="1.0" standalone="no"?><!DOCTYPE svg PUBLIC "-//W3C//DTD SVG 1.1//EN" "http://www.w3.org/Graphics/SVG/1.1/DTD/svg11.dtd"><svg t="1523242742111" class="icon" style="" viewBox="0 0 1024 1024" version="1.1" xmlns="http://www.w3.org/2000/svg" p-id="16291" xmlns:xlink="http://www.w3.org/1999/xlink" width="200" height="200"><defs><style type="text/css"></style></defs><path d="M256 725.333333C256 640 426.666667 593.066667 512 593.066667 597.333333 593.066667 768 640 768 725.333333L768 768 256 768M640 384C640 454.826667 582.826667 512 512 512 441.173333 512 384 454.826667 384 384 384 313.173333 441.173333 256 512 256 582.826667 256 640 313.173333 640 384M128 213.333333 128 810.666667C128 857.6 166.4 896 213.333333 896L810.666667 896C857.6 896 896 857.6 896 810.666667L896 213.333333C896 166.4 857.6 128 810.666667 128L213.333333 128C165.973333 128 128 166.4 128 213.333333Z" p-id="16292" fill="#1296db"></path></svg>