<?xml version="1.0" standalone="no"?><!DOCTYPE svg PUBLIC "-//W3C//DTD SVG 1.1//EN" "http://www.w3.org/Graphics/SVG/1.1/DTD/svg11.dtd"><svg t="1523242682709" class="icon" style="" viewBox="0 0 1024 1024" version="1.1" xmlns="http://www.w3.org/2000/svg" p-id="15841" xmlns:xlink="http://www.w3.org/1999/xlink" width="200" height="200"><defs><style type="text/css"></style></defs><path d="M384 384C439.04 384 490.666667 401.493333 532.053333 431.36L750.08 213.333333 554.666667 213.333333 554.666667 128 896 128 896 469.333333 810.666667 469.333333 810.666667 273.493333 592.64 490.666667C622.506667 533.333333 640 584.533333 640 640 640 781.226667 525.226667 896 384 896 242.773333 896 128 781.226667 128 640 128 498.773333 242.773333 384 384 384M384 469.333333C289.706667 469.333333 213.333333 545.706667 213.333333 640 213.333333 734.293333 289.706667 810.666667 384 810.666667 478.293333 810.666667 554.666667 734.293333 554.666667 640 554.666667 545.706667 478.293333 469.333333 384 469.333333Z" p-id="15842" fill="#1296db"></path></svg>