<?xml version="1.0" standalone="no"?><!DOCTYPE svg PUBLIC "-//W3C//DTD SVG 1.1//EN" "http://www.w3.org/Graphics/SVG/1.1/DTD/svg11.dtd"><svg t="1523242666492" class="icon" style="" viewBox="0 0 1024 1024" version="1.1" xmlns="http://www.w3.org/2000/svg" p-id="15328" xmlns:xlink="http://www.w3.org/1999/xlink" width="200" height="200"><defs><style type="text/css"></style></defs><path d="M512 170.666667C653.226667 170.666667 768 285.44 768 426.666667 768 553.386667 675.84 658.773333 554.666667 679.253333L554.666667 768 640 768 640 853.333333 554.666667 853.333333 554.666667 938.666667 469.333333 938.666667 469.333333 853.333333 384 853.333333 384 768 469.333333 768 469.333333 679.253333C348.16 658.773333 256 553.386667 256 426.666667 256 285.44 370.773333 170.666667 512 170.666667M512 256C417.706667 256 341.333333 332.373333 341.333333 426.666667 341.333333 520.96 417.706667 597.333333 512 597.333333 606.293333 597.333333 682.666667 520.96 682.666667 426.666667 682.666667 332.373333 606.293333 256 512 256Z" p-id="15329" fill="#d4237a"></path></svg>