<?xml version="1.0" standalone="no"?><!DOCTYPE svg PUBLIC "-//W3C//DTD SVG 1.1//EN" "http://www.w3.org/Graphics/SVG/1.1/DTD/svg11.dtd"><svg t="1523175327740" class="icon" style="" viewBox="0 0 1024 1024" version="1.1" xmlns="http://www.w3.org/2000/svg" p-id="15324" xmlns:xlink="http://www.w3.org/1999/xlink" width="200" height="200"><defs><style type="text/css"></style></defs><path d="M883.626667 300.373333C869.12 314.88 855.04 328.96 854.613333 343.04 853.333333 356.693333 867.84 370.773333 881.493333 384 901.973333 405.333333 922.026667 424.533333 921.173333 445.44 920.32 466.346667 898.56 488.106667 876.8 509.44L700.586667 686.08 640 625.493333 821.333333 444.586667 780.373333 403.626667 719.786667 463.786667 559.786667 303.786667 723.626667 140.373333C740.266667 123.733333 768 123.733333 783.786667 140.373333L883.626667 240.213333C900.266667 256 900.266667 283.733333 883.626667 300.373333M128 736 535.893333 327.68 695.893333 487.68 288 896 128 896 128 736Z" p-id="15325" fill="#52c41a"></path></svg>