<?xml version="1.0" standalone="no"?><!DOCTYPE svg PUBLIC "-//W3C//DTD SVG 1.1//EN" "http://www.w3.org/Graphics/SVG/1.1/DTD/svg11.dtd"><svg t="1523162991211" class="icon" style="" viewBox="0 0 1024 1024" version="1.1" xmlns="http://www.w3.org/2000/svg" p-id="1109" xmlns:xlink="http://www.w3.org/1999/xlink" width="200" height="200"><defs><style type="text/css"></style></defs><path d="M669.538462 39.384615c23.630769 0 39.384615 15.753846 39.384615 39.384616v630.153846c0 23.630769-15.753846 39.384615-39.384615 39.384615H354.461538c-23.630769 0-39.384615-15.753846-39.384615-39.384615V78.769231c0-23.630769 15.753846-39.384615 39.384615-39.384616h315.076924m0-39.384615H354.461538C311.138462 0 275.692308 35.446154 275.692308 78.769231v630.153846c0 43.323077 35.446154 78.769231 78.76923 78.769231h315.076924c43.323077 0 78.769231-35.446154 78.76923-78.769231V78.769231c0-43.323077-35.446154-78.769231-78.76923-78.769231z" fill="#1296db" p-id="1110"></path><path d="M551.384615 630.153846v118.153846h-78.76923v-118.153846h78.76923m39.384616-39.384615h-157.538462v196.923077h157.538462v-196.923077zM669.538462 236.307692H354.461538v39.384616h315.076924V236.307692zM669.538462 118.153846H354.461538v39.384616h315.076924V118.153846zM669.538462 354.461538H354.461538v39.384616h315.076924V354.461538zM669.538462 472.615385H354.461538v39.384615h315.076924v-39.384615z" fill="#1296db" p-id="1111"></path><path d="M933.415385 775.876923c55.138462 23.630769 90.584615 55.138462 90.584615 90.584615 0 86.646154-228.430769 157.538462-512 157.538462S0 953.107692 0 866.461538c0-31.507692 31.507692-63.015385 90.584615-90.584615-7.876923 11.815385-11.815385 19.692308-11.815384 31.507692C78.769231 882.215385 271.753846 945.230769 512 945.230769s433.230769-63.015385 433.230769-137.846154c0-11.815385-3.938462-19.692308-11.815384-31.507692z" fill="#1296db" p-id="1112"></path></svg>