<?xml version="1.0" standalone="no"?><!DOCTYPE svg PUBLIC "-//W3C//DTD SVG 1.1//EN" "http://www.w3.org/Graphics/SVG/1.1/DTD/svg11.dtd"><svg t="1523174315348" class="icon" style="" viewBox="0 0 1024 1024" version="1.1" xmlns="http://www.w3.org/2000/svg" p-id="15662" xmlns:xlink="http://www.w3.org/1999/xlink" width="200" height="200"><defs><style type="text/css"></style></defs><path d="M725.333333 384 298.666667 384 298.666667 298.666667 725.333333 298.666667M725.333333 554.666667 298.666667 554.666667 298.666667 469.333333 725.333333 469.333333M597.333333 725.333333 298.666667 725.333333 298.666667 640 597.333333 640M512 128C535.466667 128 554.666667 147.2 554.666667 170.666667 554.666667 194.133333 535.466667 213.333333 512 213.333333 488.533333 213.333333 469.333333 194.133333 469.333333 170.666667 469.333333 147.2 488.533333 128 512 128M810.666667 128 632.32 128C614.4 78.506667 567.466667 42.666667 512 42.666667 456.533333 42.666667 409.6 78.506667 391.68 128L213.333333 128C166.4 128 128 166.4 128 213.333333L128 810.666667C128 857.6 166.4 896 213.333333 896L810.666667 896C857.6 896 896 857.6 896 810.666667L896 213.333333C896 166.4 857.6 128 810.666667 128Z" p-id="15663" fill="#1296db"></path></svg>