<?xml version="1.0" standalone="no"?><!DOCTYPE svg PUBLIC "-//W3C//DTD SVG 1.1//EN" "http://www.w3.org/Graphics/SVG/1.1/DTD/svg11.dtd"><svg t="1523174325868" class="icon" style="" viewBox="0 0 1024 1024" version="1.1" xmlns="http://www.w3.org/2000/svg" p-id="15831" xmlns:xlink="http://www.w3.org/1999/xlink" width="200" height="200"><defs><style type="text/css"></style></defs><path d="M298.666667 341.333333 298.666667 256 213.333333 256 213.333333 810.666667 810.666667 810.666667 810.666667 256 725.333333 256 725.333333 341.333333 298.666667 341.333333M384 170.666667C384 99.84 441.173333 42.666667 512 42.666667 582.826667 42.666667 640 99.84 640 170.666667L810.666667 170.666667C857.6 170.666667 896 209.066667 896 256L896 810.666667C896 857.6 857.6 896 810.666667 896L213.333333 896C166.4 896 128 857.6 128 810.666667L128 256C128 209.066667 166.4 170.666667 213.333333 170.666667L384 170.666667M512 128C488.533333 128 469.333333 147.2 469.333333 170.666667 469.333333 194.133333 488.533333 213.333333 512 213.333333 535.466667 213.333333 554.666667 194.133333 554.666667 170.666667 554.666667 147.2 535.466667 128 512 128Z" p-id="15832" fill="#8a8a8a"></path></svg>