<?xml version="1.0" standalone="no"?><!DOCTYPE svg PUBLIC "-//W3C//DTD SVG 1.1//EN" "http://www.w3.org/Graphics/SVG/1.1/DTD/svg11.dtd"><svg t="1518610765575" class="icon" style="" viewBox="0 0 1024 1024" version="1.1" xmlns="http://www.w3.org/2000/svg" p-id="10140" xmlns:xlink="http://www.w3.org/1999/xlink" width="200" height="200"><defs><style type="text/css"></style></defs><path d="M512 553.984q64 0 139.989333 18.005333t139.008 59.989333 63.018667 93.994667l0 128-683.989333 0 0-128q0-52.010667 63.018667-93.994667t139.008-59.989333 139.989333-18.005333zM512 169.984q70.016 0 120.021333 50.986667t50.005333 121.002667-50.005333 120.021333-120.021333 50.005333-120.021333-50.005333-50.005333-120.021333 50.005333-121.002667 120.021333-50.986667zM512 635.989333q-88.021333 0-173.994667 32.981333t-86.016 57.002667l0 45.994667 520.021333 0 0-45.994667q0-24.021333-86.016-57.002667t-173.994667-32.981333zM512 251.989333q-38.016 0-64 25.984t-25.984 64 25.984 63.018667 64 25.002667 64-25.002667 25.984-63.018667-25.984-64-64-25.984z" p-id="10141" fill="#949494"></path></svg>